<?xml version="1.0" standalone="no"?><!DOCTYPE svg PUBLIC "-//W3C//DTD SVG 1.1//EN" "http://www.w3.org/Graphics/SVG/1.1/DTD/svg11.dtd"><svg t="1526352808630" class="icon" style="" viewBox="0 0 1024 1024" version="1.1" xmlns="http://www.w3.org/2000/svg" p-id="1152" xmlns:xlink="http://www.w3.org/1999/xlink" width="200" height="200"><defs><style type="text/css"></style></defs><path d="M213.4 625.4c-24.5 0-45.9-16.5-52.2-40.1l-1.1-4.2c-7.6-28.7 9.6-58.3 38.3-65.9l17.9-4.7c4.5-1.2 9.1-1.8 13.7-1.8 24.5 0 45.9 16.5 52.2 40.1l1.1 4.2c7.6 28.7-9.6 58.3-38.3 65.9l-17.9 4.7c-4.5 1.2-9.1 1.8-13.7 1.8z" fill="#f4ea2a" p-id="1153"></path><path d="M230.1 527.5c15.5 0 29.8 10.4 33.9 26.1l1.1 4.2c4.9 18.6-6.3 37.9-24.9 42.8l-17.9 4.7c-3 0.8-6 1.2-8.9 1.2-15.5 0-29.8-10.4-33.9-26.1l-1.1-4.2c-4.9-18.6 6.3-37.9 24.9-42.8l17.9-4.7c2.9-0.8 5.9-1.2 8.9-1.2m0-37.7c-6.3 0-12.5 0.8-18.5 2.4l-17.9 4.7c-18.8 5-34.5 17-44.3 33.8-9.8 16.8-12.5 36.4-7.5 55.2l1.1 4.2c8.4 31.9 37.4 54.2 70.4 54.2 6.2 0 12.5-0.8 18.5-2.4l17.9-4.7c38.8-10.3 62-50.2 51.8-89l-1.1-4.2c-8.5-31.9-37.4-54.2-70.4-54.2z" fill="#f4ea2a" p-id="1154"></path><path d="M206.8 405.3c-3 0-6.1-0.3-9.1-0.8l-18.2-3.1c-14.2-2.4-26.5-10.2-34.9-22-8.3-11.8-11.6-26.1-9.2-40.2l0.7-4.3c4.4-26 26.8-44.8 53.1-44.8 3 0 6.1 0.3 9.1 0.8l18.2 3.1c14.2 2.4 26.5 10.2 34.9 22 8.3 11.8 11.6 26.1 9.2 40.2l-0.7 4.3c-4.4 26-26.7 44.8-53.1 44.8z" fill="#f4ea2a" p-id="1155"></path><path d="M189.4 309c1.9 0 3.9 0.2 5.9 0.5l18.2 3.1c19 3.2 31.9 21.4 28.6 40.4l-0.7 4.3c-2.9 17-17.8 29.1-34.5 29.1-1.9 0-3.9-0.2-5.9-0.5l-18.2-3.1c-19-3.2-31.9-21.4-28.6-40.4l0.7-4.3c2.8-17 17.7-29.1 34.5-29.1m0-37.8c-35.6 0-65.8 25.5-71.8 60.5l-0.7 4.3c-6.8 39.6 19.9 77.2 59.5 84l18.2 3.1c4 0.7 8.2 1 12.2 1 35.6 0 65.8-25.5 71.8-60.5l0.7-4.3c6.8-39.6-19.9-77.2-59.5-84l-18.2-3.1c-4-0.6-8.2-1-12.2-1z" fill="#f4ea2a" p-id="1156"></path><path d="M360.3 783.4c-8.9 0-17.8-2.2-25.6-6.5l-3.8-2.1c-12.6-6.8-21.8-18.2-25.9-32.1-4.1-13.8-2.6-28.4 4.3-41l8.8-16.3c9.4-17.4 27.6-28.2 47.5-28.2 8.9 0 17.8 2.2 25.6 6.5l3.8 2.1c26.1 14.2 35.8 46.9 21.7 73.1l-8.8 16.3c-9.6 17.4-27.8 28.2-47.6 28.2z" fill="#f4ea2a" p-id="1157"></path><path d="M365.5 676.2c5.6 0 11.3 1.4 16.6 4.2l3.8 2.1c16.9 9.2 23.3 30.5 14.1 47.5l-8.8 16.3c-6.3 11.7-18.4 18.3-30.9 18.3-5.6 0-11.3-1.4-16.6-4.2l-3.8-2.1c-16.9-9.2-23.3-30.5-14.1-47.5l8.8-16.3c6.3-11.7 18.4-18.3 30.9-18.3m0-37.8c-26.8 0-51.3 14.6-64.1 38.1l-8.8 16.3c-9.3 17.1-11.3 36.7-5.8 55.4 5.5 18.7 18 34 35 43.3l3.8 2.1c10.6 5.7 22.6 8.8 34.6 8.8 26.8 0 51.3-14.6 64.1-38.1l8.8-16.3c9.3-17.1 11.3-36.7 5.8-55.4-5.5-18.7-18-34-35-43.3l-3.8-2.1c-10.6-5.7-22.6-8.8-34.6-8.8z" fill="#f4ea2a" p-id="1158"></path><path d="M575.1 822.6c-26.6 0-49.5-19.9-53.4-46.2l-2.1-14.8c-4.3-29.4 16.2-56.8 45.6-61.1l1.4-0.2c2.6-0.4 5.1-0.6 7.7-0.6 26.6 0 49.5 19.9 53.4 46.2l2.1 14.8c2.1 14.2-1.6 28.4-10.2 39.9-8.6 11.6-21.2 19.1-35.4 21.1l-1.4 0.2c-2.5 0.6-5.1 0.7-7.7 0.7z" fill="#f4ea2a" p-id="1159"></path><path d="M574.3 718.7c17.1 0 32.1 12.6 34.7 30l2.1 14.8c2.8 19.1-10.6 36.9-29.6 39.7l-1.4 0.2c-1.7 0.2-3.4 0.4-5 0.4-17.1 0-32.1-12.6-34.7-30l-2.1-14.8c-2.8-19.1 10.6-36.9 29.6-39.7l1.4-0.2c1.7-0.3 3.4-0.4 5-0.4m0-37.7c-3.5 0-7 0.3-10.4 0.8l-1.4 0.2c-19.2 2.8-36.2 12.9-47.8 28.5-11.7 15.6-16.5 34.8-13.8 54l2.1 14.8c5.1 35.5 36.1 62.4 72 62.4 3.5 0 7-0.3 10.4-0.8l1.4-0.2c39.7-5.8 67.4-42.7 61.6-82.5l-2.1-14.8c-5.1-35.6-36.1-62.4-72-62.4z" fill="#f4ea2a" p-id="1160"></path><path d="M768.5 722c-14.8 0-29.2-6.2-39.3-16.9l-9.8-10.4c-9.8-10.5-15-24.1-14.6-38.6 0.4-14.4 6.4-27.8 16.9-37.6 10.6-9.9 23.7-15.1 37.5-15.1 14.8 0 29.2 6.2 39.3 16.9l9.8 10.4c20.4 21.6 19.3 55.8-2.3 76.2-10.6 9.9-23.7 15.1-37.5 15.1z" fill="#f4ea2a" p-id="1161"></path><path d="M759.2 622.2c9.3 0 18.7 3.7 25.5 11l9.8 10.4c13.2 14 12.5 36.3-1.5 49.5l-0.6 0.5c-6.7 6.3-15.4 9.5-24 9.5-9.3 0-18.7-3.7-25.5-11l-9.8-10.4c-13.2-14-12.5-36.3 1.5-49.5l0.6-0.5c6.8-6.3 15.4-9.5 24-9.5m0-37.7c-18.6 0-36.3 7-49.9 19.7l-0.5 0.5c-29.2 27.5-30.6 73.7-3.1 102.9l9.8 10.4c13.7 14.5 33 22.9 53 22.9 18.6 0 36.3-7 49.9-19.7l0.5-0.5c14.1-13.3 22.2-31.3 22.8-50.8 0.6-19.5-6.4-38-19.7-52.1l-9.8-10.4c-13.6-14.6-32.9-22.9-53-22.9z" fill="#f4ea2a" p-id="1162"></path><path d="M835.4 535.2c-29.7 0-53.9-24.2-53.9-53.9s24.2-53.9 53.9-53.9 53.9 24.2 53.9 53.9c0 29.8-24.2 53.9-53.9 53.9z" fill="#f4ea2a" p-id="1163"></path><path d="M835.4 446.3c19.3 0 35 15.8 35 35s-15.8 35-35 35c-19.3 0-35-15.8-35-35s15.7-35 35-35m0-37.7c-40.1 0-72.8 32.6-72.8 72.8s32.6 72.8 72.8 72.8 72.8-32.6 72.8-72.8-32.7-72.8-72.8-72.8z" fill="#f4ea2a" p-id="1164"></path><path d="M521.2 734.2c-20.1 0-40.5-1.8-60.6-5.3-77.3-13.5-204.2-86.6-236.7-233-26.9-121.2 22.7-229.6 43.8-255.3 18.2-22.3 45-34.5 75.5-34.5 40.3 0 79.9 22.2 98.5 55.2 17.8 31.6 15.5 68.8-6.4 104.7-23.8 39.1-26.5 92.9-7.1 140.5 20.3 49.7 60.6 84.5 113.5 97.8 9.8 2.5 20.7 3.8 31.5 3.8 26.8 0 66.6-8 103.4-45.9 32.1-33.1 34.8-75.6 23.2-103.1-5.8-13.8-20.7-36.9-54.8-36.9-4.5 0-9.2 0.4-14.1 1.2-24.9 4.3-42.2 13.5-51.4 27.5-12 18.3-7.5 40.4-7.4 40.6 2.5 10.3-2.2 20.9-11.4 26.1-3.6 2-7.6 3-11.5 3-6.1 0-12.2-2.4-16.7-6.9-1.9-1.9-45.4-46.5-25.9-114.1 15.8-54.8 75.9-93 146.1-93 79 0 160.9 53.1 165.9 171.6 2.4 57-21.1 114.3-66 161.1-57.9 60.4-142.2 94.9-231.4 94.9z" fill="#f4ea2a" p-id="1165"></path><path d="M343.2 229.7c55.9 0 114.8 53.7 72 124.1C360.5 443.5 402 593.4 536 627.2c10.8 2.7 23.5 4.5 37.3 4.5 36.4 0 80.9-12.4 120.3-53 66.3-68.3 36.5-180-48.6-180-5.8 0-11.8 0.5-18.1 1.6-97 16.7-77.8 96.9-77.8 96.9s-35.8-35.8-19.9-90.9c13.5-46.8 67.5-76 123.4-76 67.6 0 137.9 42.8 142.3 149 5 118.4-117.9 231.3-273.7 231.3-18.5 0-37.4-1.6-56.6-4.9-57.5-10-185.5-69.9-217.7-214.9-25.2-113.3 22.7-215.3 39-235.3 14.8-17.9 35.9-25.8 57.3-25.8m0-47.2v47.2-47.2c-37.7 0-71 15.3-93.8 43.2-23.1 28.2-77.4 145.7-48.6 275.4 35 157.7 172.1 236.6 255.7 251.2 21.5 3.7 43.2 5.6 64.7 5.6 95.6 0 186.1-37.2 248.3-102.1 49.4-51.5 75.2-114.9 72.5-178.5-5.6-134.1-99.2-194.2-189.5-194.2-80.6 0-150 45.3-168.8 110.1-18.7 64.6 11.2 116.7 31.8 137.3 9.4 9.4 22 14.5 34.7 14.5 7.9 0 15.8-2 22.9-6.2 18.4-10.8 27.5-31.6 21.9-52.2-0.3-2.4-1.7-14.4 4.3-23.1 7-10.1 23.1-14.7 35.4-16.8 3.5-0.6 6.9-0.9 10.1-0.9 15.7 0 26.8 7.6 33.1 22.5 8.6 20.3 6.2 52.1-18.3 77.4-31.1 32-64.1 38.7-86.4 38.7-8.9 0-17.8-1.1-25.7-3.1-61.3-15.5-87.3-59.2-97.4-83.9-16.7-40.8-14.6-86.5 5.4-119.3 26.1-42.9 28.6-89.7 6.8-128.6-23-40.6-69.7-67-119.1-67z" fill="#f4ea2a" p-id="1166"></path><path d="M357.7 288.7s-69.1 53.9-13.6 66.3c-3.5-21.9 13.6-66.3 13.6-66.3zM340.1 415.1s-48.2 58.4 3.9 62.5c-16.7-27.6-3.9-62.5-3.9-62.5zM344.3 539.8s-7.1 80.9 43.3 45.3c-34.3-12.6-43.3-45.3-43.3-45.3zM431.6 618.9s6.7 69.3 59.1 38.4c-39.8-6.8-59.1-38.4-59.1-38.4zM550.6 660.1s34.8 31.3 77.3 0c-39.8-20-20.6 0.4-77.3 0zM677.2 632s49.3-2.4 50.5-33.8c-37.8 7-11.5 12-50.5 33.8zM747 542.3s33.5-24.4 14.5-49.5c-24.8 29.3 1.8 7.9-14.5 49.5zM748.3 436.4s7.6-40.8-23.5-45.9c2.2 38.3 6.8 4.5 23.5 45.9zM680.7 373.9s-17.1-29-44.8-1.4c22.3-2 17.6 1.8 44.8 1.4zM594.1 376.8s-36.2-2.4-34.6 36.6c8.8-14.4 20.5-22.9 34.6-36.6z" fill="#f4ea2a" p-id="1167"></path></svg>